# xmcd
#
# Track frame offsets:
#	150
#	12841
#	26685
#	40405
#	55072
#	70415
#	79621
#	93763
#	105655
#	117003
#	130410
#	145292
#	156140
#	167856
#	181537
#	198042
# Disc length: 2812 seconds
# Revision: 9
# Processed by: cddbd v1.5.2PL0 Copyright (c) Steve Scherf et al.
#
# Submitted via: libkcddb 0.21
#
DISCID=c80afa10
DTITLE=Ernst Mosch and Ernst Hutter - Goldene Egerländer- Hits
DYEAR=1900
DGENRE=National Folk
TTITLE0=Andulka-Marsch
TTITLE1=Schöne Pragerin
TTITLE2=Südbömische Polka
TTITLE3=So was wie Du
TTITLE4=Egerländer Festtagspolka
TTITLE5=Antonin-Polka
TTITLE6=Mitten ins Herz
TTITLE7=Rosamunde
TTITLE8=Liebeserklärung
TTITLE9=Musikantenparade
TTITLE10=Du, nur du allein
TTITLE11=Stunden, die man nie vergisst
TTITLE12=Komm zu mir
TTITLE13=Blumenmädchen
TTITLE14=Mach?s gut
TTITLE15=Der Falkenauer
EXTD=
EXTT0=
EXTT1=
EXTT2=
EXTT3=
EXTT4=
EXTT5=
EXTT6=
EXTT7=
EXTT8=
EXTT9=
EXTT10=
EXTT11=
EXTT12=
EXTT13=
EXTT14=
EXTT15=
PLAYORDER=
